<?xml version="1.0" encoding="UTF-8"?><svg id="b" xmlns="http://www.w3.org/2000/svg" viewBox="0 0 391.46 85.04"><defs><style>.e{fill:#fff;stroke-width:0px;}</style></defs><g id="c"><g id="d"><path class="e" d="m41.18,0c7.65,1.41,18.75,4.78,24.74,6.77,15.19,5.23,20.35,11.73,20.35,26.32s-8.81,19.7-19.99,14.28v-26.57c0-3.1-.57-5.99-3.5-6.8-2.24-.72-3.64,1.37-3.64,4.5v66.53l-17.97-5.69V0m21.38,83.83l39.2-14.08s5.27-1.96,7.45-4.66c2.15-2.73,1.2-6.66-7.28-9.35-7.52-2.84-17.09-3.8-24.9-2.95-7.82.85-13.38,2.82-13.38,2.82l-1.1.36v10.81l19.2-6.78c3.3-1.19,8.09-1.44,10.77-.56,2.64.86,2.14,2.51-1.12,3.72l-28.85,10.27v10.39Zm-54.3-11.49c9.33,3.09,18.78,3.7,27.65,2.22.58-.1,1.22-.2,1.8-.29v-9.32l-8.9,3.21c-3.28,1.21-8.05,1.45-10.74.55-2.64-.86-2.15-2.51,1.13-3.69l18.5-6.63v-10.44l-25.74,9.18s-6.23,2.03-9.88,4.73c-3.96,2.95-2.51,8.07,6.17,10.49m94.86,4.19c-2.53,0-4.27,1.88-4.27,4.25s1.74,4.25,4.27,4.25,4.23-1.86,4.23-4.25-1.7-4.25-4.23-4.25m0,7.88c-2.19,0-3.59-1.62-3.59-3.62s1.4-3.6,3.59-3.6,3.57,1.62,3.57,3.6-1.43,3.62-3.57,3.62m-1.68-1.17h.88v-2.09h.58c.74,0,.9.18,1.04.75.1.34.26.97.38,1.34h.9c-.14-.47-.32-.99-.48-1.54-.16-.57-.38-.81-.7-.89v-.02c.62-.18.9-.61.9-1.19,0-1.01-.66-1.28-1.57-1.28h-1.94v4.92Zm.88-4.29h.84c.48,0,.94.1.94.77,0,.57-.38.81-1,.81h-.78v-1.58Zm139.86-10.91c7.57,0,13.72-6.14,13.72-13.71v-23.6c0-4.57,3.7-8.27,8.27-8.27h26.61c.2,0,.36-.16.36-.36v-4.72c0-.2-.16-.36-.36-.36h-32.06c-7.58,0-13.72,6.14-13.72,13.71v23.59c0,4.56-3.7,8.27-8.27,8.27h-26.24c-.2,0-.36.16-.36.36v4.72c0,.2.16.36.36.36h31.69Zm59.93-31.86c0,4.56,3.7,8.27,8.27,8.27h46.86c5.01,0,9.16,4.1,9.14,9.11-.02,4.99-4.07,9.04-9.07,9.04,0,0-41.13,0-54.84,0-.2,0-.36.16-.36.36v4.72c0,.2.16.36.36.36h60.29c8.02,0,14.52-6.5,14.52-14.52s-6.5-14.52-14.52-14.52h-45.83c-2.17,0-3.92-1.76-3.92-3.92v-12.25c0-.2.16-.36.36-.36h61.56c.2,0,.36-.16.36-.36v-4.72c0-.2-.16-.36-.36-.36h-72.45c-.2,0-.36.16-.36.36,0,2.81,0,11.92,0,18.8m-149.81,2.81c-7.58,0-13.71,6.14-13.71,13.72,0,0,0,10.89,0,14.97,0,.2.16.36.36.36h10.17c.2,0,.36-.16.36-.36v-14.96c0-4.56,3.7-8.27,8.27-8.27h42.23c7.57,0,13.72-6.14,13.72-13.72s-6.14-13.72-13.72-13.72h-61.03c-.2,0-.36.16-.36.36v4.72c0,.2.16.36.36.36h55.59c4.56,0,8.27,3.7,8.27,8.27s-3.7,8.26-8.27,8.26h-42.23Zm239.15,24.71c0,2.39-1.71,4.25-4.23,4.25s-4.27-1.86-4.27-4.25,1.74-4.25,4.27-4.25,4.23,1.88,4.23,4.25Zm-.66,0c0-1.98-1.42-3.6-3.57-3.6s-3.59,1.62-3.59,3.6,1.4,3.62,3.59,3.62,3.57-1.62,3.57-3.62Zm-1.95.91c.16.55.34,1.07.48,1.54h-.9c-.12-.36-.28-.99-.38-1.34-.14-.57-.3-.75-1.04-.75h-.58v2.09h-.88v-4.92h1.95c.9,0,1.56.26,1.56,1.28,0,.59-.28,1.01-.9,1.19v.02c.32.08.54.32.7.89Zm-.64-1.98c0-.67-.46-.77-.94-.77h-.84v1.58h.78c.62,0,1-.24,1-.81Z"/></g></g></svg>