<svg xmlns="http://www.w3.org/2000/svg" viewBox="0 0 73.4 65.57">
  <defs>
    <style>
      .cls-1 {
        fill: #fff;
      }
    </style>
  </defs>
  <g id="logo_square">
    <path id="mark" class="cls-1" d="M4.42,48.01l2.78,3.75h1.11v-5.61h-1.14v3.68l-2.76-3.68h-1.13v5.61h1.14v-3.75ZM31.79,46.15h-4.75v1.19h1.79v4.42h1.21v-4.42h1.75v-1.19ZM31.44,65.2h2.35v-10.58h-2.35v10.58ZM19.15,48.01l2.78,3.75h1.11v-5.61h-1.14v3.68l-2.76-3.68h-1.13v5.61h1.14v-3.75ZM24.47,62.3l-2.24-7.68h-1.88l-2.23,7.65-2.03-7.65h-2.3l2.99,10.58h2.54l1.97-6.97,1.96,6.97h2.55l3.01-10.58h-2.3l-2.04,7.68ZM7.67,58.78c-1.53-.25-2.52-.53-2.52-1.25,0-.82,1.1-1.14,2.57-1.14,1.37,0,2.75.52,3.24.73l.75-1.83c-.53-.21-2.22-.81-4.1-.81-2.29,0-4.71,1.11-4.71,3.18,0,1.68,1.18,2.53,4.21,3.05,2.14.37,3.32.57,3.28,1.49-.02.51-.41,1.36-2.82,1.36-1.94,0-3.3-.7-3.78-.99l-1,1.81c.53.28,2.32,1.12,4.63,1.12,3.37,0,5.14-1.17,5.14-3.37,0-1.28-.43-2.61-4.91-3.35M13.79,46.15h-1.25v5.61h1.25v-5.61ZM49.93,51.76v-5.61h-1.14v3.68l-2.76-3.68h-1.13v5.61h1.14v-3.75l2.79,3.75h1.11ZM40.25,50.72h-3.22v-1.32h2.98v-1.01h-2.98v-1.21h3.22v-1.03h-4.36v5.61h4.36v-1.04ZM70.09,63.93h.48v1.27h.31v-1.27h.47v-.3h-1.26v.3ZM66.49,45.96c-1.65,0-2.99,1.34-2.99,2.99s1.34,2.99,2.99,2.99,2.99-1.34,2.99-2.99-1.34-2.99-2.99-2.99M66.49,50.7c-.96,0-1.74-.78-1.74-1.75s.78-1.75,1.74-1.75,1.74.78,1.74,1.75-.78,1.75-1.74,1.75M72.96,63.63l-.4,1.15-.4-1.15h-.44v1.57h.28v-1.21l.41,1.19h0s.27.01.27.01h0s.41-1.21.41-1.21v1.21h.28v-1.57h-.44ZM66.87,58.79h-4.94v-4.17h-2.19v10.58h2.19v-4.22h4.94v4.22h2.19v-10.58h-2.19v4.17ZM36.38,56.87h3.38v8.33h2.28v-8.33h3.3v-2.25h-8.96v2.25ZM52.69,56.63c1.19,0,2.31.64,2.9,1.64l1.72-1.5c-1.05-1.57-2.79-2.5-4.69-2.5-3.11,0-5.65,2.53-5.65,5.65s2.53,5.65,5.65,5.65c1.89,0,3.63-.93,4.69-2.5l-1.72-1.5c-.6,1.01-1.71,1.64-2.9,1.64-1.85,0-3.36-1.48-3.36-3.29s1.51-3.29,3.36-3.29M56.99,46.15h-2.32v5.61h2.32c1.59,0,2.88-1.26,2.88-2.8s-1.29-2.8-2.88-2.8M57.05,50.58h-1.22v-3.25h1.22c.9,0,1.62.73,1.62,1.63s-.73,1.63-1.62,1.63M17.95.6h-8.26C4.34.6,0,4.94,0,10.29v18.41c0,5.35,4.34,9.69,9.69,9.69h8.26c.15,0,.28-.12.28-.28V.88c0-.15-.12-.28-.28-.28ZM15.18,35.33h-5.49c-1.77,0-3.44-.69-4.7-1.94-1.25-1.25-1.95-2.92-1.95-4.7V10.29c0-1.78.69-3.44,1.94-4.7,1.25-1.25,2.92-1.95,4.7-1.95h5.49v31.69ZM9.43,8.38c1.96,0,3.55,1.59,3.55,3.55s-1.59,3.55-3.55,3.55-3.55-1.59-3.55-3.55,1.59-3.55,3.55-3.55ZM28.09.6h-5.85c-.14,0-.25.11-.25.25v37.26c0,.15.12.28.28.28h5.81c5.35,0,9.69-4.34,9.69-9.69V10.29c0-5.35-4.34-9.69-9.69-9.69ZM29.48,25.2c-2.11,0-3.82-1.71-3.82-3.82s1.71-3.82,3.82-3.82,3.82,1.71,3.82,3.82-1.71,3.82-3.82,3.82ZM44.15,38.38v-6.49c.67-.55,3.21-2.73,5.89-5.04,2.41-2.08,4.82-4.16,7.28-6.18,1.85-1.52,5.37-4.32,5.48-7.06.13-3.22-2.15-5.31-5.57-5.31-2.03,0-4.42,1.13-5.87,2.36s-3.3,2.82-3.3,2.82c0,0-5.35-5.8-5.35-5.8C47.26,2.58,52.14,0,57.23,0c10.84-.27,19.02,11.82,10.77,21.29-2.99,3.3-6.39,6.39-9.88,9.13h14.16v7.95h-28.13Z"/>
  </g>
</svg>